<svg xmlns="http://www.w3.org/2000/svg" xmlns:xlink="http://www.w3.org/1999/xlink" width="25" height="30" viewBox="0 0 25 30">
    <defs>
        <path id="a" d="M12.512.969c2.825 1.546 4.392 4.513 4.303 7.56a8.459 8.459 0 0 1-1 3.75 8.454 8.454 0 0 1-3.4 3.442l.006.001a8.22 8.22 0 0 1-3.135.989l-.02.002a8.31 8.31 0 0 1-.824.047h-.031l-.108-.002a8.337 8.337 0 0 1-.316-.008l-.018-.001a8.228 8.228 0 0 1-3.477-.962A8.234 8.234 0 0 1 .67 11.46l-.016-.04a8.479 8.479 0 0 1-.579-3.083c0-.088.004-.174.007-.26C.03 8.539 0 9.007 0 9.483c0 6.83 5.54 12.367 12.376 12.367 6.77 0 12.267-5.434 12.37-12.175.001-.064.005-.127.005-.192a12.3 12.3 0 0 0-1.463-5.835 4.556 4.556 0 0 0-.69-.972 8.452 8.452 0 0 0-6.173-2.66 8.472 8.472 0 0 0-3.913.953"/>
        <linearGradient id="b" x1="0%" y1="50%" y2="50%">
            <stop offset="0%" stop-color="#F6A41F"/>
            <stop offset="100%" stop-color="#D65115"/>
        </linearGradient>
        <path id="d" d="M.035.004h9.414v6.815H.035z"/>
        <path id="f" d="M1.306 3.973A12.452 12.452 0 0 0 .073 7.772a8.514 8.514 0 0 0 .51 3.86l.016.04c.03.077.061.153.093.228C1.93 14.783 4.7 16.837 7.964 17.01l.019.001c.105.005.212.007.318.008l.14.002a8.467 8.467 0 0 0 .831-.048c.007 0 .015 0 .022-.002a8.511 8.511 0 0 0 3.157-.998c-1.805-.393-3.415-1.978-3.994-4.167a6.524 6.524 0 0 1-.197-1.17 6.003 6.003 0 0 1 .236-2.208c.253-.829.688-1.56 1.269-2.117a3.991 3.991 0 0 1 1.752-.993c2.026-.534 4.159.62 5.286 2.674a8.507 8.507 0 0 0-4.288-6.888 8.327 8.327 0 0 0-1.72-.73A8.296 8.296 0 0 0 8.41.02c-2.989 0-5.612 1.577-7.104 3.952"/>
        <linearGradient id="g" x1="-725.757%" x2="878.415%" y1="50%" y2="50%">
            <stop offset="0%" stop-color="#F6CE0E"/>
            <stop offset="100%" stop-color="#F7AC1A"/>
        </linearGradient>
    </defs>
    <g fill="none" fill-rule="evenodd">
        <g transform="translate(0 8)">
            <mask id="c" fill="#fff">
                <use xlink:href="#a"/>
            </mask>
            <path fill="url(#b)" d="M12.512.969c2.825 1.546 4.392 4.513 4.303 7.56a8.459 8.459 0 0 1-1 3.75 8.454 8.454 0 0 1-3.4 3.442l.006.001a8.22 8.22 0 0 1-3.135.989l-.02.002a8.31 8.31 0 0 1-.824.047h-.031l-.108-.002a8.337 8.337 0 0 1-.316-.008l-.018-.001a8.228 8.228 0 0 1-3.477-.962A8.234 8.234 0 0 1 .67 11.46l-.016-.04a8.479 8.479 0 0 1-.579-3.083c0-.088.004-.174.007-.26C.03 8.539 0 9.007 0 9.483c0 6.83 5.54 12.367 12.376 12.367 6.77 0 12.267-5.434 12.37-12.175.001-.064.005-.127.005-.192a12.3 12.3 0 0 0-1.463-5.835 4.556 4.556 0 0 0-.69-.972 8.452 8.452 0 0 0-6.173-2.66 8.472 8.472 0 0 0-3.913.953" mask="url(#c)"/>
        </g>
        <g transform="translate(12.284)">
            <mask id="e" fill="#fff">
                <use xlink:href="#d"/>
            </mask>
            <path fill="#A0A820" d="M9.436 1.144C5.547-2.104-.72 2.243.11 5.982 4.028 8.72 9.76 4.108 9.436 1.144" mask="url(#e)"/>
        </g>
        <path fill="#C4B905" d="M11.4 5.786c-.72-4.044-6.882-4.61-8.319-1.856 1.005 3.743 6.973 3.866 8.318 1.856"/>
        <g transform="translate(0 8)">
            <mask id="h" fill="#fff">
                <use xlink:href="#f"/>
            </mask>
            <path fill="url(#g)" d="M1.306 3.973A12.452 12.452 0 0 0 .073 7.772a8.514 8.514 0 0 0 .51 3.86l.016.04c.03.077.061.153.093.228C1.93 14.783 4.7 16.837 7.964 17.01l.019.001c.105.005.212.007.318.008l.14.002a8.467 8.467 0 0 0 .831-.048c.007 0 .015 0 .022-.002a8.511 8.511 0 0 0 3.157-.998c-1.805-.393-3.415-1.978-3.994-4.167a6.524 6.524 0 0 1-.197-1.17 6.003 6.003 0 0 1 .236-2.208c.253-.829.688-1.56 1.269-2.117a3.991 3.991 0 0 1 1.752-.993c2.026-.534 4.159.62 5.286 2.674a8.507 8.507 0 0 0-4.288-6.888 8.327 8.327 0 0 0-1.72-.73A8.296 8.296 0 0 0 8.41.02c-2.989 0-5.612 1.577-7.104 3.952" mask="url(#h)"/>
        </g>
    </g>
</svg>
